<svg width="839" height="608" xmlns="http://www.w3.org/2000/svg" xmlns:xlink="http://www.w3.org/1999/xlink"><defs><path id="a" d="M0 0h851v668H0z"/><linearGradient x1="50%" y1="100%" x2="50%" y2="0%" id="b"><stop stop-color="#FFF" stop-opacity="0" offset="0%"/><stop stop-color="#FFF" stop-opacity=".7" offset="100%"/></linearGradient><linearGradient x1="50%" y1="100%" x2="50%" y2="0%" id="d"><stop stop-color="#00878E" stop-opacity="0" offset="0%"/><stop stop-color="#00878E" stop-opacity=".7" offset="100%"/></linearGradient><linearGradient x1="50%" y1="100%" x2="50%" y2="0%" id="e"><stop stop-color="#A5E8ED" stop-opacity="0" offset="0%"/><stop stop-color="#A5E8ED" offset="100%"/></linearGradient><linearGradient x1="50%" y1="0%" x2="50%" y2="100%" id="f"><stop stop-color="#00878E" stop-opacity="0" offset="0%"/><stop stop-color="#00878E" stop-opacity=".5" offset="100%"/></linearGradient></defs><g transform="translate(-11 -60)" fill="none" fill-rule="evenodd"><mask id="c" fill="#fff"><use xlink:href="#a"/></mask><use xlink:href="#a"/><path d="M12.852 689.522l476.849 249.592a21.334 21.334 0 0 0 19.889 0l476.88-249.592c9.071-4.748 9.071-17.74 0-22.487L509.59 417.443a21.346 21.346 0 0 0-19.889 0L12.852 667.035c-9.04 4.748-9.04 17.74 0 22.487" fill="url(#b)" opacity=".5" mask="url(#c)"/><path d="M655.663 626.815l327.957 171.66a14.673 14.673 0 0 0 13.679 0l327.979-171.66c6.239-3.265 6.239-12.2 0-15.465l-327.98-171.66a14.681 14.681 0 0 0-13.678 0L655.663 611.35c-6.217 3.265-6.217 12.2 0 15.465" fill="url(#d)" mask="url(#c)"/><path d="M550.056 237.204l425.899 222.923a19.055 19.055 0 0 0 17.763 0l425.927-222.923c8.103-4.24 8.103-15.844 0-20.085L993.718-5.805a19.065 19.065 0 0 0-17.763 0l-425.9 222.924c-8.074 4.24-8.074 15.844 0 20.085" fill="url(#e)" mask="url(#c)"/><path d="M152.412 386.537L533.04 585.765a17.03 17.03 0 0 0 15.876 0l380.653-199.228c7.241-3.79 7.241-14.16 0-17.95L548.916 169.36a17.039 17.039 0 0 0-15.876 0L152.412 368.588c-7.216 3.79-7.216 14.16 0 17.95" fill="url(#f)" mask="url(#c)"/></g></svg>