<svg data-name="Layer 1" xmlns="http://www.w3.org/2000/svg" viewBox="0 0 1440 339.1"><defs><clipPath id="a"><path fill="none" d="M0 0h1440v339.1H0z"/></clipPath><linearGradient id="b" x1="1159.29" y1="497.13" x2="1159.29" y2="59.85" gradientUnits="userSpaceOnUse"><stop offset="0" stop-color="#00878e"/><stop offset="1" stop-color="#00878e" stop-opacity="0"/></linearGradient><linearGradient id="c" x1="663.14" y1="-11.9" x2="2133.14" y2="-11.9" gradientUnits="userSpaceOnUse"><stop offset="0" stop-color="#fff"/><stop offset="1" stop-color="#fff" stop-opacity="0"/></linearGradient><linearGradient id="d" x1="461.85" y1="260.8" x2="461.85" y2="-293.8" gradientUnits="userSpaceOnUse"><stop offset="0" stop-color="#aa77ec" stop-opacity="0"/><stop offset="1" stop-color="#aa77ec"/></linearGradient></defs><g clip-path="url(#a)" fill-rule="evenodd"><path d="M754.92 287.82L1151 495.08a17.73 17.73 0 0 0 16.52 0l396.11-207.26a10.54 10.54 0 0 0 0-18.67l-396.1-207.26a17.73 17.73 0 0 0-16.52 0L754.92 269.15a10.56 10.56 0 0 0 0 18.67" opacity=".5" fill="url(#b)"/><path d="M673.23 4.83l710.06 371.56a31.78 31.78 0 0 0 29.61 0L2123 4.83a18.89 18.89 0 0 0 0-33.47L1412.9-400.2a31.79 31.79 0 0 0-29.61 0L673.23-28.64a18.92 18.92 0 0 0 0 33.47" opacity=".25" fill="url(#c)"/><path d="M-51-4.66l502.35 262.87a22.49 22.49 0 0 0 21 0L974.68-4.66a13.37 13.37 0 0 0 0-23.68L472.3-291.21a22.49 22.49 0 0 0-21 0L-51-28.34a13.39 13.39 0 0 0 0 23.68" fill="url(#d)"/></g></svg>